<mxfile host="65bd71144e">
    <diagram id="vXxmGxMhgdWPJlRuYWt-" name="Page-1">
        <mxGraphModel dx="2304" dy="7030" grid="1" gridSize="1" guides="1" tooltips="1" connect="1" arrows="1" fold="1" page="1" pageScale="1" pageWidth="850" pageHeight="1100" math="0" shadow="0">
            <root>
                <mxCell id="0"/>
                <mxCell id="1" parent="0"/>
                <mxCell id="2" value="" style="rounded=1;whiteSpace=wrap;html=1;fillColor=#dae8fc;opacity=40;strokeColor=#6c8ebf;glass=0;strokeWidth=3;" vertex="1" parent="1">
                    <mxGeometry x="-1520" y="-6462.15" width="440" height="470" as="geometry"/>
                </mxCell>
                <mxCell id="31" style="edgeStyle=none;html=1;entryX=0;entryY=0.5;entryDx=0;entryDy=0;fontSize=10;startArrow=none;startFill=0;endArrow=classic;endFill=1;strokeWidth=2;" edge="1" parent="1" source="3" target="14">
                    <mxGeometry relative="1" as="geometry"/>
                </mxCell>
                <mxCell id="3" value="Hero Instantiation" style="rounded=1;whiteSpace=wrap;html=1;fillColor=#dae8fc;strokeColor=#6c8ebf;glass=0;strokeWidth=3;verticalAlign=middle;fontStyle=1;fontSize=12;" vertex="1" parent="1">
                    <mxGeometry x="-1425" y="-6412.99" width="90" height="67.74" as="geometry"/>
                </mxCell>
                <mxCell id="23" style="edgeStyle=none;html=1;startArrow=classic;startFill=1;endArrow=none;endFill=0;strokeWidth=2;fillColor=#fff2cc;strokeColor=#d6b656;exitX=-0.004;exitY=0.722;exitDx=0;exitDy=0;exitPerimeter=0;" edge="1" parent="1" source="4">
                    <mxGeometry relative="1" as="geometry">
                        <mxPoint x="-1470" y="-6288" as="targetPoint"/>
                    </mxGeometry>
                </mxCell>
                <mxCell id="24" style="edgeStyle=none;html=1;exitX=0;exitY=0.25;exitDx=0;exitDy=0;startArrow=classic;startFill=1;endArrow=none;endFill=0;strokeWidth=2;fillColor=#f8cecc;strokeColor=#b85450;" edge="1" parent="1" source="4">
                    <mxGeometry relative="1" as="geometry">
                        <mxPoint x="-1445" y="-6379.69" as="targetPoint"/>
                        <Array as="points">
                            <mxPoint x="-1445" y="-6320"/>
                        </Array>
                    </mxGeometry>
                </mxCell>
                <mxCell id="32" style="edgeStyle=none;html=1;entryX=0;entryY=0.5;entryDx=0;entryDy=0;fontSize=10;startArrow=none;startFill=0;endArrow=classic;endFill=1;strokeWidth=2;" edge="1" parent="1" source="4" target="6">
                    <mxGeometry relative="1" as="geometry"/>
                </mxCell>
                <mxCell id="4" value="Descriptor&lt;br&gt;Generation" style="rounded=1;whiteSpace=wrap;html=1;fillColor=#dae8fc;strokeColor=#6c8ebf;glass=0;strokeWidth=3;verticalAlign=middle;fontStyle=1;fontSize=12;" vertex="1" parent="1">
                    <mxGeometry x="-1425" y="-6336.249999999999" width="90" height="67.74" as="geometry"/>
                </mxCell>
                <mxCell id="33" style="edgeStyle=none;html=1;entryX=0;entryY=0.5;entryDx=0;entryDy=0;fontSize=10;startArrow=none;startFill=0;endArrow=classic;endFill=1;strokeWidth=2;" edge="1" parent="1" source="5" target="25">
                    <mxGeometry relative="1" as="geometry"/>
                </mxCell>
                <mxCell id="5" value="Layer Generation" style="rounded=1;whiteSpace=wrap;html=1;fillColor=#dae8fc;strokeColor=#6c8ebf;glass=0;strokeWidth=3;verticalAlign=middle;fontStyle=1;fontSize=12;" vertex="1" parent="1">
                    <mxGeometry x="-1425" y="-6261.0199999999995" width="90" height="67.74" as="geometry"/>
                </mxCell>
                <mxCell id="30" style="edgeStyle=none;html=1;fontSize=10;startArrow=none;startFill=0;endArrow=classic;endFill=1;strokeWidth=2;" edge="1" parent="1" source="6" target="10">
                    <mxGeometry relative="1" as="geometry"/>
                </mxCell>
                <mxCell id="6" value="&lt;b style=&quot;font-size: 10px;&quot;&gt;Layer&lt;br style=&quot;font-size: 10px;&quot;&gt;Descriptors&lt;/b&gt;" style="ellipse;whiteSpace=wrap;html=1;aspect=fixed;rounded=1;fontSize=10;strokeWidth=3;fillColor=#dae8fc;strokeColor=#6c8ebf;" vertex="1" parent="1">
                    <mxGeometry x="-1305" y="-6337.379999999999" width="70" height="70" as="geometry"/>
                </mxCell>
                <mxCell id="9" value="SystemC Backend" style="text;html=1;strokeColor=none;fillColor=none;align=center;verticalAlign=middle;whiteSpace=wrap;rounded=0;fontSize=24;fontStyle=1" vertex="1" parent="1">
                    <mxGeometry x="-1430" y="-6460.63" width="260" height="34.07" as="geometry"/>
                </mxCell>
                <mxCell id="62" style="edgeStyle=none;html=1;entryX=0.5;entryY=0;entryDx=0;entryDy=0;fontSize=10;startArrow=none;startFill=0;endArrow=classic;endFill=1;strokeWidth=2;" edge="1" parent="1" source="10" target="28">
                    <mxGeometry relative="1" as="geometry"/>
                </mxCell>
                <mxCell id="10" value="Simulate Dram Load" style="rounded=1;whiteSpace=wrap;html=1;fillColor=#dae8fc;strokeColor=#6c8ebf;glass=0;strokeWidth=3;verticalAlign=middle;fontStyle=1;fontSize=12;" vertex="1" parent="1">
                    <mxGeometry x="-1177.5" y="-6335.12" width="90" height="67.74" as="geometry"/>
                </mxCell>
                <mxCell id="61" style="edgeStyle=none;html=1;entryX=0.5;entryY=0;entryDx=0;entryDy=0;fontSize=10;startArrow=none;startFill=0;endArrow=classic;endFill=1;strokeWidth=2;" edge="1" parent="1" source="13" target="39">
                    <mxGeometry relative="1" as="geometry"/>
                </mxCell>
                <mxCell id="70" style="edgeStyle=none;html=1;entryX=1;entryY=0.5;entryDx=0;entryDy=0;fontSize=10;startArrow=none;startFill=0;endArrow=classic;endFill=1;strokeWidth=2;" edge="1" parent="1" source="13" target="40">
                    <mxGeometry relative="1" as="geometry"/>
                </mxCell>
                <mxCell id="13" value="Cycle &lt;br&gt;Accurate&lt;br&gt;Simulation" style="rounded=1;whiteSpace=wrap;html=1;fillColor=#dae8fc;strokeColor=#6c8ebf;glass=0;strokeWidth=3;verticalAlign=middle;fontStyle=1;fontSize=12;" vertex="1" parent="1">
                    <mxGeometry x="-1281.16" y="-6169.0599999999995" width="90" height="67.74" as="geometry"/>
                </mxCell>
                <mxCell id="34" style="edgeStyle=none;html=1;entryX=0;entryY=0;entryDx=0;entryDy=0;fontSize=10;startArrow=none;startFill=0;endArrow=classic;endFill=1;strokeWidth=2;" edge="1" parent="1" source="14" target="10">
                    <mxGeometry relative="1" as="geometry">
                        <Array as="points">
                            <mxPoint x="-1200" y="-6379"/>
                        </Array>
                    </mxGeometry>
                </mxCell>
                <mxCell id="14" value="&lt;b style=&quot;font-size: 10px&quot;&gt;Hero &lt;br&gt;Instance&lt;/b&gt;" style="ellipse;whiteSpace=wrap;html=1;aspect=fixed;rounded=1;fontSize=10;strokeWidth=3;fillColor=#dae8fc;strokeColor=#6c8ebf;" vertex="1" parent="1">
                    <mxGeometry x="-1304.63" y="-6413.94" width="69.63" height="69.63" as="geometry"/>
                </mxCell>
                <mxCell id="21" value="" style="rounded=1;whiteSpace=wrap;html=1;fillColor=#fff2cc;opacity=40;strokeColor=#d6b656;glass=0;strokeWidth=3;dashed=1;" vertex="1" parent="1">
                    <mxGeometry x="-1639" y="-6435.93" width="103" height="99.37" as="geometry"/>
                </mxCell>
                <mxCell id="22" value="Python&lt;br&gt;Frontend" style="text;html=1;strokeColor=none;fillColor=none;align=center;verticalAlign=middle;whiteSpace=wrap;rounded=0;fontSize=20;fontStyle=1" vertex="1" parent="1">
                    <mxGeometry x="-1650" y="-6426.56" width="125" height="30" as="geometry"/>
                </mxCell>
                <mxCell id="15" style="edgeStyle=none;html=1;exitX=0.999;exitY=0.497;exitDx=0;exitDy=0;fontSize=22;startArrow=none;startFill=0;endArrow=classic;endFill=1;strokeWidth=2;fillColor=#f8cecc;strokeColor=#b85450;entryX=0;entryY=0.5;entryDx=0;entryDy=0;exitPerimeter=0;" edge="1" parent="1" target="3" source="18">
                    <mxGeometry relative="1" as="geometry">
                        <mxPoint x="-1563.5" y="-6379.43" as="sourcePoint"/>
                        <mxPoint x="-1496.7499999999998" y="-6379.43" as="targetPoint"/>
                    </mxGeometry>
                </mxCell>
                <mxCell id="16" style="edgeStyle=none;html=1;exitX=1.011;exitY=0.509;exitDx=0;exitDy=0;fontSize=22;startArrow=none;startFill=0;endArrow=classic;endFill=1;strokeWidth=2;fillColor=#fff2cc;strokeColor=#d6b656;entryX=0;entryY=0.5;entryDx=0;entryDy=0;exitPerimeter=0;" edge="1" parent="1" target="5" source="17">
                    <mxGeometry relative="1" as="geometry">
                        <mxPoint x="-1563.5" y="-6364.43" as="sourcePoint"/>
                        <mxPoint x="-1496.7499999999998" y="-6364.394161073826" as="targetPoint"/>
                        <Array as="points">
                            <mxPoint x="-1470" y="-6364"/>
                            <mxPoint x="-1470" y="-6227"/>
                        </Array>
                    </mxGeometry>
                </mxCell>
                <mxCell id="17" value="Layer Config." style="text;html=1;align=center;verticalAlign=middle;resizable=0;points=[];autosize=1;strokeColor=none;fillColor=none;fontSize=12;fontStyle=1" vertex="1" parent="1">
                    <mxGeometry x="-1630.75" y="-6374.37" width="90" height="20" as="geometry"/>
                </mxCell>
                <mxCell id="18" value="Arch. Config" style="text;html=1;align=center;verticalAlign=middle;resizable=0;points=[];autosize=1;strokeColor=none;fillColor=none;fontSize=12;fontStyle=1" vertex="1" parent="1">
                    <mxGeometry x="-1630.75" y="-6389.43" width="90" height="20" as="geometry"/>
                </mxCell>
                <mxCell id="20" value="Sim. Results" style="text;html=1;align=center;verticalAlign=middle;resizable=0;points=[];autosize=1;strokeColor=none;fillColor=none;fontSize=12;fontStyle=1" vertex="1" parent="1">
                    <mxGeometry x="-1630.75" y="-6358.43" width="90" height="20" as="geometry"/>
                </mxCell>
                <mxCell id="35" style="edgeStyle=none;html=1;entryX=0;entryY=1;entryDx=0;entryDy=0;fontSize=10;startArrow=none;startFill=0;endArrow=classic;endFill=1;strokeWidth=2;" edge="1" parent="1" source="25" target="10">
                    <mxGeometry relative="1" as="geometry">
                        <Array as="points">
                            <mxPoint x="-1200" y="-6227"/>
                        </Array>
                    </mxGeometry>
                </mxCell>
                <mxCell id="25" value="&lt;b style=&quot;font-size: 10px;&quot;&gt;Conv.&lt;br style=&quot;font-size: 10px;&quot;&gt;Layer&lt;/b&gt;" style="ellipse;whiteSpace=wrap;html=1;aspect=fixed;rounded=1;fontSize=10;strokeWidth=3;fillColor=#dae8fc;strokeColor=#6c8ebf;" vertex="1" parent="1">
                    <mxGeometry x="-1304.81" y="-6261.96" width="69.63" height="69.63" as="geometry"/>
                </mxCell>
                <mxCell id="63" style="edgeStyle=none;html=1;fontSize=10;startArrow=none;startFill=0;endArrow=classic;endFill=1;strokeWidth=2;" edge="1" parent="1" source="28" target="13">
                    <mxGeometry relative="1" as="geometry"/>
                </mxCell>
                <mxCell id="28" value="&lt;b style=&quot;font-size: 10px&quot;&gt;Initialized&lt;br style=&quot;font-size: 10px&quot;&gt;Hero&lt;br style=&quot;font-size: 10px&quot;&gt;Instance&lt;/b&gt;" style="ellipse;whiteSpace=wrap;html=1;aspect=fixed;rounded=1;fontSize=10;strokeWidth=3;fillColor=#dae8fc;strokeColor=#6c8ebf;" vertex="1" parent="1">
                    <mxGeometry x="-1168.47" y="-6168.27" width="69.63" height="69.63" as="geometry"/>
                </mxCell>
                <mxCell id="71" style="edgeStyle=none;html=1;entryX=1;entryY=0.5;entryDx=0;entryDy=0;fontSize=10;startArrow=none;startFill=0;endArrow=classic;endFill=1;strokeWidth=2;" edge="1" parent="1" source="39" target="41">
                    <mxGeometry relative="1" as="geometry"/>
                </mxCell>
                <mxCell id="39" value="Simulate &lt;br&gt;Dram Load&lt;br&gt;&amp;amp; Validate Output" style="rounded=1;whiteSpace=wrap;html=1;fillColor=#dae8fc;strokeColor=#6c8ebf;glass=0;strokeWidth=3;verticalAlign=middle;fontStyle=1;fontSize=12;" vertex="1" parent="1">
                    <mxGeometry x="-1278.6599999999999" y="-6077.69" width="85" height="61.54" as="geometry"/>
                </mxCell>
                <mxCell id="73" style="edgeStyle=none;html=1;fontSize=10;startArrow=none;startFill=0;endArrow=none;endFill=0;strokeWidth=2;fillColor=#d5e8d4;strokeColor=#82b366;" edge="1" parent="1" source="40">
                    <mxGeometry relative="1" as="geometry">
                        <mxPoint x="-1501.16" y="-6135.11" as="targetPoint"/>
                    </mxGeometry>
                </mxCell>
                <mxCell id="40" value="&lt;b&gt;Simulation Results&lt;/b&gt;" style="ellipse;whiteSpace=wrap;html=1;aspect=fixed;rounded=1;fontSize=10;strokeWidth=3;fillColor=#dae8fc;strokeColor=#6c8ebf;" vertex="1" parent="1">
                    <mxGeometry x="-1371.16" y="-6170.000000000001" width="69.63" height="69.63" as="geometry"/>
                </mxCell>
                <mxCell id="66" style="edgeStyle=none;html=1;fontSize=10;startArrow=none;startFill=0;endArrow=classic;endFill=1;strokeWidth=2;" edge="1" parent="1" source="41" target="68">
                    <mxGeometry relative="1" as="geometry">
                        <mxPoint x="-1451.1599999999996" y="-6045.915" as="targetPoint"/>
                    </mxGeometry>
                </mxCell>
                <mxCell id="41" value="&lt;b&gt;Layer &lt;br&gt;Output&lt;/b&gt;" style="ellipse;whiteSpace=wrap;html=1;aspect=fixed;rounded=1;fontSize=10;strokeWidth=3;fillColor=#dae8fc;strokeColor=#6c8ebf;" vertex="1" parent="1">
                    <mxGeometry x="-1371.16" y="-6081.730000000001" width="69.63" height="69.63" as="geometry"/>
                </mxCell>
                <mxCell id="72" style="edgeStyle=none;html=1;entryX=1.016;entryY=0.436;entryDx=0;entryDy=0;entryPerimeter=0;fontSize=10;startArrow=none;startFill=0;endArrow=classic;endFill=1;strokeWidth=4;fillColor=#d5e8d4;strokeColor=#82b366;endSize=5;" edge="1" parent="1" target="20">
                    <mxGeometry relative="1" as="geometry">
                        <mxPoint x="-1500" y="-6046" as="sourcePoint"/>
                        <Array as="points">
                            <mxPoint x="-1500" y="-6350"/>
                        </Array>
                    </mxGeometry>
                </mxCell>
                <mxCell id="75" style="edgeStyle=none;html=1;fontSize=10;startArrow=none;startFill=0;endArrow=none;endFill=0;endSize=5;strokeWidth=2;fillColor=#d5e8d4;strokeColor=#82b366;" edge="1" parent="1">
                    <mxGeometry relative="1" as="geometry">
                        <mxPoint x="-1501.16" y="-6046.919999999999" as="targetPoint"/>
                        <mxPoint x="-1481.1599999999999" y="-6046.919999999999" as="sourcePoint"/>
                    </mxGeometry>
                </mxCell>
                <mxCell id="68" value="Output Validation" style="rounded=1;whiteSpace=wrap;html=1;fillColor=#dae8fc;strokeColor=#6c8ebf;glass=0;strokeWidth=3;verticalAlign=middle;fontStyle=1;fontSize=12;" vertex="1" parent="1">
                    <mxGeometry x="-1481.1599999999999" y="-6077.69" width="85" height="61.54" as="geometry"/>
                </mxCell>
            </root>
        </mxGraphModel>
    </diagram>
</mxfile>